<svg width="12" height="12" viewBox="0 0 12 12" fill="none" xmlns="http://www.w3.org/2000/svg">
<path d="M7.92308 8.69231V10.2308C7.92308 10.4348 7.84203 10.6305 7.69778 10.7747C7.55352 10.9189 7.35786 11 7.15385 11H1.76923C1.56522 11 1.36956 10.9189 1.2253 10.7747C1.08104 10.6305 1 10.4348 1 10.2308V1.76923C1 1.56522 1.08104 1.36956 1.2253 1.2253C1.36956 1.08104 1.56522 1 1.76923 1H7.15385C7.35786 1 7.55352 1.08104 7.69778 1.2253C7.84203 1.36956 7.92308 1.56522 7.92308 1.76923V3.30769" stroke="black" stroke-linecap="round" stroke-linejoin="round"/>
<path d="M5.61572 6H11.0003" stroke="black" stroke-linecap="round" stroke-linejoin="round"/>
<path d="M9.46094 4.46191L10.9994 6.00038L9.46094 7.53884" stroke="black" stroke-linecap="round" stroke-linejoin="round"/>
</svg>
